<?xml version="1.0" encoding="UTF-8"?>
<svg id="Camada_1" data-name="Camada 1" xmlns="http://www.w3.org/2000/svg" viewBox="0 0 568.74 815.8">
  <defs>
    <style>
      .cls-1 {
        fill: #003957;
        stroke: #003957;
      }

      .cls-1, .cls-2, .cls-3 {
        stroke-miterlimit: 10;
        stroke-width: .09px;
      }

      .cls-2 {
        stroke: #c6ccb0;
      }

      .cls-2, .cls-3 {
        fill: #a8c941;
      }

      .cls-3 {
        stroke: #a8c941;
      }
    </style>
  </defs>
  <path class="cls-2" d="M493.62,229.65c1.27-3.84,2.35-7.14,3.22-9.81,2.97-10.41,8.32-20.51,8.03-31.51-.59-7.73-9.81-7.43-15.76-7.73-38.65.3-77.3.3-115.95,0-9.81-.59-19.32,5.35-22,14.86-25.27,76.11-49.95,152.51-74.92,228.92-3.27,10.11-2.68,20.81-2.68,31.51.59,55.59-.59,111.19.59,166.78,24.97.59,50.24.89,75.22.3,10.7.59,19.03-8.03,21.41-17.84,12.78-40.43,26.76-80.57,39.24-121.3,1.12-7.39,22.31-71.31,43.74-135.3,0,0,.02.02.03.03.37-1.16.76-2.33,1.13-3.5,11.06-32.99,22.08-65.73,30.37-90.48,2.81-8.31,5.58-16.63,8.31-24.95Z"/>
  <path class="cls-1" d="M59.94,280.78c-2.68-5.65-2.97-15.76,5.35-16.35,42.51-.89,85.32,0,127.84-.3,9.22-.89,17.24,6.54,19.92,15.16,15.76,45.49,30.03,91.27,45.19,136.76,2.68,7.43,5.65,15.16,5.35,23.19-.3,61.84-.3,123.38,0,185.22-24.68.3-49.35,0-73.73,0-8.92.59-18.14-4.16-21.11-12.78-3.86-10.7-7.73-21.41-10.41-32.41.89-7.43,3.86-14.57,7.14-21.11,6.24-12.19,19.62-19.32,24.08-32.41,5.65-18.43,6.84-39.54,20.22-54.41,8.92-4.46,19.92-2.68,29.73-5.95,8.32-8.03,13.08-19.62,15.46-30.92-10.11-2.38-22.59,2.38-30.62-5.65-6.54-6.54-16.05-7.73-24.38-10.7-1.19-6.84-2.38-13.97-3.86-20.81-10.7,11.89-9.22,29.14-18.73,41.62-5.35,7.43-9.51,16.05-16.95,21.7-10.41,8.62-22.89,13.38-35.38,17.84-21.7-65.7-43.7-131.7-65.11-197.7h0Z"/>
  <path class="cls-1" d="M451.19,469.26c-5.35,1.19-11.59,2.38-12.78,8.92-1.49,14.87,5.35,29.14,4.16,44.3-.89,4.46-3.27,11-8.92,10.7-16.65.3-33.89.3-50.54-2.38-16.05-2.68-29.43-12.49-41.92-22.3-6.54-5.05-11.3-11.89-15.76-18.73-5.05,13.38-16.05,23.19-25.57,33.59,4.76,8.62,14.27,11,23.49,11.3,8.32-.59,10.7,8.92,12.19,15.16,2.08,9.51,6.54,19.03,5.65,29.14-3.86,10.41-9.51,20.51-13.68,30.92-2.08,7.14-13.08,7.73-12.78,16.05,7.73,0,16.95.3,22.89-6.24,7.14-8.62,11.89-19.32,19.32-28.24,12.19,8.62,21.41,20.51,25.86,34.49,3.86-.59,7.73-1.49,11.59-2.08-5.35-15.16-16.35-27.95-20.81-43.7,8.92-.3,17.54-.3,26.46.3,5.05,9.51,13.38,16.65,18.73,25.57-5.35,6.54-13.68,10.11-16.35,18.43,12.49,4.16,22.89-4.76,28.84-14.86,4.76-4.46,2.68-11.3,2.68-16.95,9.81,5.35,20.22,8.32,30.62,11.89,6.24,6.54,2.68,16.05,1.78,23.78,4.76-.3,9.22-.89,13.68-1.78,1.49-10.41.3-21.7-8.03-29.43-16.35-16.05-24.08-40.73-19.03-63.03,3.27-12.78-.3-25.57-2.38-38.05-2.08-8.92,4.16-17.84.59-26.76h0Z"/>
  <g>
    <g>
      <path class="cls-3" d="M13.71,690.03l27.56,80.89,23.01-80.89h14.06l-8.68,30.59,17.64,50.99,23.84-81.58h13.64l-30.45,100.87h-13.5l-17.5-48.78-15.3,48.78h-13.5L.07,690.03h13.64Z"/>
      <path class="cls-3" d="M153.85,717.04c24.8,0,32.52,9.23,32.52,38.31,0,27.15-7.58,36.24-32.52,36.24s-32.52-10.06-32.52-36.24c0-29.9,8.27-38.31,32.52-38.31ZM153.85,779.88c13.78,0,19.84-1.79,19.84-24.53,0-24.67-4.96-26.73-19.84-26.73s-19.84,2.07-19.84,26.73c0,22.88,6.75,24.53,19.84,24.53Z"/>
      <path class="cls-3" d="M200.42,717.73h9.65l3.03,9.23c7.44-4.82,14.88-10.06,25.63-10.06,3.72,0,7.85.28,9.65,1.1v12.4c-1.79-.41-6.34-.69-10.34-.69-10.2,0-15.85,2.34-24.94,7.99v53.19h-12.68v-73.17Z"/>
      <path class="cls-3" d="M258.71,683h12.68v81.03c0,11.58,3.03,14.19,7.44,15.43,0,0,10.47,2.89,11.44,2.89v8.54h-13.09c-11.02,0-18.47-6.61-18.47-26.04v-81.85Z"/>
      <path class="cls-3" d="M317.68,716.63c6.2,0,17.5,1.93,25.77,5.37v-39.27h12.54v108.17h-9.65l-2.89-7.99c-3.86,3.03-16.54,8.82-25.77,8.82-19.43,0-23.98-18.6-23.98-37.07,0-19.98,3.31-38.03,23.98-38.03ZM319.06,779.88c9.92,0,17.78-3.03,24.39-5.92v-42.44c-8.41-2.34-14.88-3.31-24.39-3.31-7.99,0-12.68,4.82-12.68,26.32,0,17.36,4.55,25.36,12.68,25.36Z"/>
    </g>
    <g>
      <path class="cls-1" d="M390.66,690.03l22.46,75.52,23.7-75.52h20.53l-33.21,100.87h-22.32l-31.69-100.87h20.53Z"/>
      <path class="cls-1" d="M483.95,717.18c21.22,0,31,2.34,31,26.6,0,13.09-7.17,18.46-20.39,18.46h-23.29c0,13.09,4.96,13.92,15.43,13.92,11.16,0,16.54.14,26.87-1.52v13.09c-10.33,3.86-26.04,3.86-37.48,3.86-18.6,0-24.12-10.75-24.12-37.62,0-31.42,8.82-36.79,31.97-36.79ZM489.6,748.32c4,0,6.06-1.93,6.06-5.51,0-9.23-1.38-10.89-10.61-10.89-10.2,0-13.92.55-13.78,16.4h18.33Z"/>
      <path class="cls-1" d="M521.15,721.59l11.85-4,3.17-20.39h16.12v20.39h16.4v14.75h-16.4v29.35c0,10.75,2.48,13.09,6.2,14.47,0,0,8.27,2.89,9.23,2.89v11.85h-16.81c-10.75,0-17.91-6.75-17.91-26.18v-32.38h-11.85v-10.75Z"/>
    </g>
  </g>
</svg>